# xmcd
#
# Track frame offsets: 
#        150
#        16992
#        32005
#        45385
#        60097
#        76695
#        92980
#        110177
#        124547
#        141185
#        153267
#        169847
#        183312
#        196250
#
# Disc length: 2809 seconds
#
# Revision: 1
# Processed by: cddbd v1.5.1PL0 Copyright (c) Steve Scherf et al.
# Submitted via: ExactAudioCopy v0.95a5
#
DISCID=a80af70e
DTITLE=Adalberto and Adriano - Preciso Ir
DYEAR=1998
DGENRE=sertanejo
TTITLE0=Preciso Ir
TTITLE1=Quando A Noite Chega
TTITLE2=Capim Mexeu,Pau Na Preá
TTITLE3=Traição
TTITLE4=Sertanejo Com Madonna
TTITLE5=Eu Quero Voltar Pra Você
TTITLE6=Tem Amor
TTITLE7=Ripa Na Chulipa
TTITLE8=É Impossível Te Esquecer
TTITLE9=A Cobra Vai Fumar
TTITLE10=Eu Quero Saber
TTITLE11=Sô Solteiro ( Abusa De Ser Gostosa )
TTITLE12=Deu Tudo Errado
TTITLE13=O Beijo É Bom
EXTD=
EXTT0=
EXTT1=
EXTT2=
EXTT3=
EXTT4=
EXTT5=
EXTT6=
EXTT7=
EXTT8=
EXTT9=
EXTT10=
EXTT11=
EXTT12=
EXTT13=
PLAYORDER=
